<svg width="96" height="96" fill="none" xmlns="http://www.w3.org/2000/svg"><mask id="a" mask-type="alpha" maskUnits="userSpaceOnUse" x="0" y="0" width="96" height="96"><path fill-rule="evenodd" clip-rule="evenodd" d="M68.075 95.344a5.975 5.975 0 0 0 4.763-.183l19.764-9.51A6 6 0 0 0 96 80.244V15.757a6 6 0 0 0-3.398-5.407L72.838.839A5.977 5.977 0 0 0 66.018 2L28.181 36.52 11.7 24.01a3.996 3.996 0 0 0-5.105.226l-5.286 4.809a4.002 4.002 0 0 0-.005 5.915L15.597 48 1.304 61.04a4.002 4.002 0 0 0 .005 5.916l5.286 4.808a3.996 3.996 0 0 0 5.105.227l16.48-12.51L66.019 94a5.97 5.97 0 0 0 2.057 1.343zm3.94-69.137L43.305 48l28.71 21.793V26.207z" fill="#fff"/></mask><g mask="url(#a)"><path d="M92.603 10.364 72.823.84A5.98 5.98 0 0 0 66 2L1.247 61.04a4 4 0 0 0 .004 5.915l5.29 4.809a4 4 0 0 0 5.107.227l77.978-59.156C92.243 10.85 96 12.716 96 16v-.23a6 6 0 0 0-3.397-5.406z" fill="#0065A9"/><g filter="url(#b)"><path d="m92.603 85.636-19.78 9.523A5.98 5.98 0 0 1 66 94L1.247 34.96a4 4 0 0 1 .004-5.916l5.29-4.808a4 4 0 0 1 5.107-.227l77.978 59.156C92.243 85.149 96 83.284 96 80v.23a6 6 0 0 1-3.397 5.406z" fill="#007ACC"/></g><g filter="url(#c)"><path d="M72.823 95.161A5.983 5.983 0 0 1 66 94.001c2.214 2.213 6 .645 6-2.486V4.485c0-3.13-3.786-4.7-6-2.485A5.983 5.983 0 0 1 72.823.84l19.777 9.51a6 6 0 0 1 3.4 5.408v64.487a6 6 0 0 1-3.4 5.407l-19.776 9.51z" fill="#1F9CF0"/></g><path fill-rule="evenodd" clip-rule="evenodd" d="M68.017 95.344a5.975 5.975 0 0 0 4.762-.183l19.765-9.51a6 6 0 0 0 3.398-5.407V15.757a6 6 0 0 0-3.398-5.407L72.78.839A5.977 5.977 0 0 0 65.96 2L28.123 36.52l-16.48-12.51a3.996 3.996 0 0 0-5.106.226L1.25 29.045a4.002 4.002 0 0 0-.004 5.915L15.539 48 1.246 61.04a4.002 4.002 0 0 0 .004 5.916l5.286 4.808a3.996 3.996 0 0 0 5.105.227l16.482-12.51L65.96 94a5.968 5.968 0 0 0 2.057 1.343zm3.94-69.137L43.246 48l28.71 21.793V26.207z" fill="url(#d)" style="mix-blend-mode:overlay" opacity=".25"/></g><defs><filter id="b" x="-8.058" y="15.196" width="112.058" height="88.556" filterUnits="userSpaceOnUse" color-interpolation-filters="sRGB"><feFlood flood-opacity="0" result="BackgroundImageFix"/><feColorMatrix in="SourceAlpha" values="0 0 0 0 0 0 0 0 0 0 0 0 0 0 0 0 0 0 127 0"/><feOffset/><feGaussianBlur stdDeviation="4"/><feColorMatrix values="0 0 0 0 0 0 0 0 0 0 0 0 0 0 0 0 0 0 0.25 0"/><feBlend mode="overlay" in2="BackgroundImageFix" result="effect1_dropShadow"/><feBlend in="SourceGraphic" in2="effect1_dropShadow" result="shape"/></filter><filter id="c" x="58" y="-7.752" width="46" height="111.505" filterUnits="userSpaceOnUse" color-interpolation-filters="sRGB"><feFlood flood-opacity="0" result="BackgroundImageFix"/><feColorMatrix in="SourceAlpha" values="0 0 0 0 0 0 0 0 0 0 0 0 0 0 0 0 0 0 127 0"/><feOffset/><feGaussianBlur stdDeviation="4"/><feColorMatrix values="0 0 0 0 0 0 0 0 0 0 0 0 0 0 0 0 0 0 0.25 0"/><feBlend mode="overlay" in2="BackgroundImageFix" result="effect1_dropShadow"/><feBlend in="SourceGraphic" in2="effect1_dropShadow" result="shape"/></filter><linearGradient id="d" x1="47.942" y1=".248" x2="47.942" y2="95.753" gradientUnits="userSpaceOnUse"><stop stop-color="#fff"/><stop offset="1" stop-color="#fff" stop-opacity="0"/></linearGradient></defs></svg>