<svg width="711.883" height="786.913" viewBox="0 0 188.352 208.204" xml:space="preserve" xmlns="http://www.w3.org/2000/svg"><path style="fill:#fff;fill-opacity:1;stroke-width:.264583" d="M504.235 506.631c-.727-.188-1.74-.558-2.248-.822-1.193-.617-27.654-15.425-39.027-21.84-3.225-1.819-7.759-4.361-31.617-17.729-7.349-4.117-13.99-7.95-14.757-8.518-.767-.568-1.8-1.651-2.297-2.408-1.867-2.847-1.745 1.044-1.668-53.245l.069-48.937.849-1.793c.51-1.078 1.362-2.29 2.138-3.042 1.266-1.229 2.334-1.839 45.3-25.88 3.419-1.913 11.694-6.55 18.388-10.305 20.879-11.712 22.45-12.568 23.944-13.027 1.862-.572 5.268-.56 6.9.025 1.319.472 1.256.438 12.812 6.914a21317.66 21317.66 0 0 0 37.438 20.91c5.02 2.799 13.177 7.349 18.124 10.112 4.948 2.763 10.901 6.084 13.23 7.38 4.428 2.465 6.921 4.493 7.938 6.458 1.22 2.358 1.183.758 1.187 51.875.003 43.674-.038 48.443-.424 49.742-.49 1.65-1.902 3.902-3.057 4.873-1.03.867.441.03-34.88 19.845-16.809 9.429-35.025 19.652-40.482 22.717-5.457 3.066-10.589 5.845-11.404 6.175-1.85.75-4.688.979-6.456.52z" transform="translate(-412.585 -298.663)"/><path style="fill:#5c6bc0;fill-opacity:1;stroke-width:.264583" d="M504.235 506.631c-.727-.188-1.74-.558-2.248-.822-1.193-.617-27.654-15.425-39.027-21.84-3.225-1.819-7.759-4.361-31.617-17.729-7.349-4.117-13.99-7.95-14.757-8.518-.767-.568-1.8-1.651-2.297-2.408-1.867-2.847-1.745 1.044-1.668-53.245l.069-48.937.849-1.793c.51-1.078 1.362-2.29 2.138-3.042 1.266-1.229 2.334-1.839 45.3-25.88 3.419-1.913 11.694-6.55 18.388-10.305 20.879-11.712 22.45-12.568 23.944-13.027 1.862-.572 5.268-.56 6.9.025 1.319.472 1.256.438 12.812 6.914a21317.66 21317.66 0 0 0 37.438 20.91c5.02 2.799 13.177 7.349 18.124 10.112 4.948 2.763 10.901 6.084 13.23 7.38 4.428 2.465 6.921 4.493 7.938 6.458 1.22 2.358 1.183.758 1.187 51.875.003 43.674-.038 48.443-.424 49.742-.49 1.65-1.902 3.902-3.057 4.873-1.03.867.441.03-34.88 19.845-16.809 9.429-35.025 19.652-40.482 22.717-5.457 3.066-10.589 5.845-11.404 6.175-1.85.75-4.688.979-6.456.52zm10.98-34.989c12.766-1.512 24.735-6.59 35.174-14.922 3.258-2.6 7.638-6.94 10.165-10.072 1.704-2.11 6.523-9.12 6.517-9.478-.004-.206-29.983-16.708-30.315-16.686-.133.009-.777.864-1.432 1.902-1.616 2.561-6.207 7.144-8.996 8.98-12.296 8.095-26.903 8.093-39.158-.006-2.706-1.788-6.798-5.786-8.71-8.51-7.785-11.09-8.447-25.657-1.7-37.447 4.888-8.544 13.25-14.532 23.288-16.677 2.738-.585 9.043-.712 11.993-.242 8.026 1.28 15.745 5.534 20.811 11.468.949 1.11 2.096 2.592 2.55 3.292.527.812.974 1.234 1.234 1.166.358-.095 29.613-16.74 29.866-16.992.159-.16-2.779-4.55-4.954-7.405-2.296-3.012-7.937-8.797-10.878-11.154-10.568-8.471-22.603-13.537-36.116-15.203-3.406-.42-12.204-.42-15.61 0-13.174 1.624-24.74 6.403-35.322 14.594-3.03 2.346-8.488 7.745-10.952 10.835-7.97 9.992-13.037 21.848-14.873 34.792-.614 4.33-.617 13.105-.007 17.595 3.18 23.376 17.456 43.295 38.4 53.576 12.254 6.016 25.299 8.22 39.025 6.594z" transform="translate(-412.585 -298.663)"/><path style="fill:#3949ab;fill-opacity:1;stroke-width:.264583" d="M505.158 506.68c-.802-.103-1.787-.313-2.19-.466-.402-.153-10.58-5.805-22.618-12.56l-42.337-23.76c-11.247-6.312-20.97-11.89-21.608-12.393-1.105-.874-3.054-3.457-3.054-4.047 0-.153.161-.058.359.212.197.27.527.426.733.346.207-.079 7.349-4.126 15.871-8.994l15.496-8.851.75 1.333c1.219 2.168 4.193 6.487 6.092 8.845 6.239 7.748 14.152 14.105 23.157 18.602 30.138 15.05 66.542 6.275 86.833-20.93 1.561-2.094 4.432-6.559 4.432-6.893 0-.109-6.34-3.68-14.089-7.937-7.749-4.256-14.58-8.022-15.182-8.368l-1.093-.628-.891 1.395c-7.904 12.366-23.493 18.41-37.801 14.658-6.6-1.731-12.966-5.63-17.217-10.543-1.505-1.74-4.744-6.414-4.744-6.848 0-.096.209-.234.463-.307.51-.146 58.753-33.344 59.239-33.766.166-.145.362-.203.436-.13.188.189 30.35-17.086 30.35-17.383 0-.134.103-.245.23-.245.19 0 24.352-13.669 29.794-16.855 1.113-.651 1.7-.855 1.984-.688.222.13.82 1.063 1.33 2.071l.925 1.834v98.713l-.845 1.717c-1.305 2.65-2.753 3.888-8.002 6.84-2.555 1.438-10.004 5.62-16.553 9.293-6.548 3.674-14.823 8.317-18.388 10.32-3.565 2.002-11.84 6.646-18.389 10.32-6.548 3.675-15.3 8.59-19.447 10.92-4.147 2.331-7.937 4.405-8.423 4.608-1.241.52-3.882.785-5.603.565z" transform="translate(-412.585 -298.663)"/><path style="fill:#273493;fill-opacity:1;stroke-width:.264583" d="M503.706 506.351c-1.558-.494-.846-.101-35.586-19.602a72669.184 72669.184 0 0 0-41.54-23.303c-9.472-5.304-11.37-6.605-12.54-8.6-.275-.47-.37-.773-.211-.675.224.138 20.269-11.06 30.299-16.927.847-.495 1.578-.9 1.623-.9.046 0 .595.863 1.22 1.918 5.91 9.969 14.822 18.776 24.962 24.664 18.265 10.606 40.67 12.27 60.391 4.486 13.636-5.383 25.857-15.594 33.488-27.981.733-1.19 1.355-2.19 1.383-2.226.029-.035 5.52 2.949 12.202 6.631 18.725 10.318 19.659 10.815 19.972 10.622.16-.1.114.163-.103.584-.667 1.288-2.825 3.07-5.601 4.622-3.006 1.68-14.288 8.01-25.334 14.215a34675 34675 0 0 1-15.148 8.5c-4.22 2.367-10.59 5.941-14.155 7.943l-17.112 9.607c-5.847 3.282-11.256 6.154-12.02 6.38-1.652.491-4.71.512-6.19.042zm-.264-69.112c-1.957-.206-6.292-1.198-8.18-1.872-5.396-1.926-9.944-4.954-14.125-9.406-2.399-2.553-5.09-6.653-4.648-7.082.178-.174 15.771-9.12 27.326-15.677.788-.447 1.363-.702 1.28-.567-.084.136 6.803 4.055 15.303 8.71 8.501 4.654 15.644 8.586 15.872 8.737.358.237.204.573-1.09 2.382-5.41 7.563-12.946 12.47-21.922 14.274-2.088.42-7.814.712-9.816.5z" transform="translate(-412.585 -298.663)"/></svg>