<svg width="800" height="800" viewBox="0 0 73 73" xmlns="http://www.w3.org/2000/svg"><g transform="translate(2 2)" fill-rule="nonzero" fill="none"><rect stroke="#5B0403" stroke-width="2" fill="#CB3837" x="-1" y="-1" width="71" height="71" rx="14"/><path d="M10 25h50v16.667H35v2.777H23.889v-2.777H10V25zm2.778 13.889h5.555v-8.333h2.778v8.333h2.778V27.778H12.778v11.11zm13.889-11.111v13.889h5.555v-2.778h5.556V27.778H26.667zm5.555 2.778H35v5.555h-2.778v-5.555zm8.334-2.778v11.11h5.555v-8.332h2.778v8.333h2.778v-8.333h2.777v8.333h2.778V27.778H40.556z" fill="#CB3837"/><path fill="#FFF" d="M12.778 38.889h5.555v-8.333h2.778v8.333h2.778V27.778H12.778zM26.667 27.778v13.889h5.555v-2.778h5.556V27.778H26.667zM35 36.11h-2.778v-5.555H35v5.555zM40.556 27.778v11.11h5.555v-8.332h2.778v8.333h2.778v-8.333h2.777v8.333h2.778V27.778z"/></g></svg>